<svg width="1200" height="630" viewBox="0 0 1200 630" xmlns="http://www.w3.org/2000/svg">
  <!-- background -->
  <rect width="1200" height="630" fill="#0E0E0E"/>
  <!-- teal glow blobs -->
  <circle cx="600"  cy="315" r="500" fill="#149584" opacity="0.09"/>
  <circle cx="-60"  cy="100" r="340" fill="#149584" opacity="0.08"/>
  <circle cx="1260" cy="530" r="360" fill="#0D6E5A" opacity="0.10"/>
  <circle cx="900"  cy="-60" r="280" fill="#20B2A0" opacity="0.07"/>
  <!-- speech wave bars (vertically centered at 315) -->
  <rect x="340" y="258" width="18" height="114" rx="9" fill="#149584" opacity="0.55"/>
  <rect x="374" y="232" width="18" height="166" rx="9" fill="#149584" opacity="0.70"/>
  <rect x="408" y="210" width="18" height="210" rx="9" fill="#20B2A0"/>
  <rect x="442" y="228" width="18" height="174" rx="9" fill="#149584" opacity="0.80"/>
  <rect x="476" y="248" width="18" height="134" rx="9" fill="#149584" opacity="0.65"/>
  <rect x="510" y="268" width="18" height="94"  rx="9" fill="#149584" opacity="0.50"/>
  <rect x="544" y="242" width="18" height="146" rx="9" fill="#20B2A0" opacity="0.80"/>
  <rect x="578" y="220" width="18" height="190" rx="9" fill="#149584" opacity="0.90"/>
  <rect x="612" y="238" width="18" height="154" rx="9" fill="#20B2A0" opacity="0.80"/>
  <rect x="646" y="260" width="18" height="110" rx="9" fill="#149584" opacity="0.60"/>
  <rect x="680" y="245" width="18" height="140" rx="9" fill="#149584" opacity="0.70"/>
  <rect x="714" y="228" width="18" height="174" rx="9" fill="#149584" opacity="0.85"/>
  <rect x="748" y="252" width="18" height="126" rx="9" fill="#149584" opacity="0.65"/>
  <rect x="782" y="270" width="18" height="90"  rx="9" fill="#149584" opacity="0.50"/>
  <rect x="816" y="258" width="18" height="114" rx="9" fill="#149584" opacity="0.55"/>
  <!-- headline -->
  <text x="80" y="182" font-family="-apple-system, BlinkMacSystemFont, 'Arial Black', 'Helvetica Neue', sans-serif" font-size="120" font-weight="900" fill="#F0EEE8" letter-spacing="-2">ECHO</text>
  <!-- teal underline accent -->
  <rect x="80" y="196" width="220" height="4" rx="2" fill="#149584"/>
  <!-- tagline -->
  <text x="80" y="560" font-family="'Courier New', Courier, monospace" font-size="26" fill="rgba(240,238,232,0.50)">Live captions · Powered by Web Speech API</text>
  <!-- feature pills -->
  <rect x="80"  y="580" width="142" height="32" rx="16" fill="#149584" opacity="0.20"/>
  <rect x="238" y="580" width="128" height="32" rx="16" fill="#149584" opacity="0.20"/>
  <text x="151" y="602" text-anchor="middle" font-family="'Courier New', Courier, monospace" font-size="14" fill="#20B2A0">real-time text</text>
  <text x="302" y="602" text-anchor="middle" font-family="'Courier New', Courier, monospace" font-size="14" fill="#20B2A0">no install</text>
  <!-- url -->
  <text x="80" y="626" font-family="'Courier New', Courier, monospace" font-size="16" fill="rgba(240,238,232,0.20)">andermiah.github.io/echo</text>
</svg>
